<svg class="icon-streaming-soundcloud" xmlns="http://www.w3.org/2000/svg" viewBox="0 0 149.69 42.12">
  <path fill-rule="evenodd"  d="M21.06,0H128.63a21.06,21.06,0,1,1,0,42.12H21.06A21.06,21.06,0,0,1,21.06,0ZM18.79,21.79l-.18,1.61.18,1.6A.09.09,0,1,0,19,25l.26-1.6L19,21.79a.09.09,0,1,0-.18,0m1.07-1-.27,2.59L19.86,26A.09.09,0,0,0,20,26l.35-2.59L20,20.81a.09.09,0,0,0-.09-.09h0l-.09.09m3.39-.36-.18,2.95.18,3.12a.18.18,0,1,0,.36,0L24,23.4l-.26-2.95a.19.19,0,0,0-.18-.18c-.18,0-.27.09-.27.18M21,20.27l-.27,3.13L21,26.34a.19.19,0,0,0,.18.18.31.31,0,0,0,.09-.18l.26-2.94-.26-3.13a.18.18,0,0,0-.18-.17c0,.08-.09.08-.09.17m1.07-.09-.27,3.22.27,3a.18.18,0,0,0,.36,0l.26-3-.26-3.22a.19.19,0,0,0-.18-.17c-.09,0-.09.09-.18.17m2.32-1.6-.27,4.82.27,3.12a.19.19,0,0,0,.18.18c.18,0,.27-.09.27-.18l.26-3.12-.26-4.82a.19.19,0,0,0-.18-.18c-.18,0-.27.09-.27.18m1.16-1.07-.18,5.89.18,3.12a.24.24,0,0,0,.27.27.29.29,0,0,0,.27-.27l.26-3.12-.26-5.89a.27.27,0,0,0-.54,0m55.07-.36v5.18c-.09-.18-.36-.63-.54-.9l-2.85-4.28H75.73v8.12h1.61V19.92c.09.18.35.62.53.89l2.95,4.46h1.43V17.15ZM86,18.76h.89c1.69,0,2.41.8,2.41,2.5a2.26,2.26,0,0,1-2.5,2.5H86Zm-1.61,6.51H86.8a3.87,3.87,0,0,0,4.19-4c0-3-1.69-4-4-4H84.39v8Zm16-8.12v8.12h4.9v-1.6h-3.21V17.15Zm24.45,1.61h.89c1.7,0,2.41.8,2.41,2.5a2.26,2.26,0,0,1-2.5,2.5h-.8Zm-1.61,6.51h2.41a3.92,3.92,0,0,0,4.11-3V20.18c-.36-2.14-1.87-2.94-3.93-2.94h-2.59v8Zm-72-5.8c0,1.61,1.07,2.05,2.5,2.41s1.78.54,1.78,1.07-.45.89-1.43.89A2.56,2.56,0,0,1,52,23L50.83,24A3.77,3.77,0,0,0,54,25.54c2.23,0,3.22-1.07,3.22-2.59,0-1.78-1.43-2.23-2.68-2.5s-1.61-.44-1.61-1c0-.36.27-.71,1.16-.71a2.56,2.56,0,0,1,1.88.8l1.16-1.16a3.94,3.94,0,0,0-2.95-1.25h-.27a2.4,2.4,0,0,0-2.67,2.32m8.92,1.79c0-1.43.54-2.59,1.88-2.59s1.87,1.16,1.87,2.59-.54,2.58-1.87,2.58-1.88-1.16-1.88-2.58m-1.69,0c0,2.5,1.33,4.19,3.48,4.19s3.57-1.69,3.57-4.19-1.34-4.2-3.57-4.2-3.48,1.7-3.48,4.2m13.65-4.2h0V21.7c0,1.34-.62,2.14-1.69,2.14s-1.7-.8-1.7-2.14V17.15H67.07V21.7c0,2.32,1.34,3.66,3.31,3.66s3.3-1.34,3.3-3.75V17.06Zm20.26,4.2c0,2.58,1.43,4.19,3.57,4.19a3.19,3.19,0,0,0,3-1.87l-1.34-.81A1.8,1.8,0,0,1,96,23.84c-1.25,0-2-1.07-2-2.58s.71-2.59,1.87-2.59a1.72,1.72,0,0,1,1.52.89l1.52-.71a3,3,0,0,0-3-1.79c-2.14,0-3.66,1.7-3.66,4.2m15.35,0c0-1.43.54-2.59,1.88-2.59s1.87,1.16,1.87,2.59-.53,2.58-1.87,2.58-1.88-1.16-1.88-2.58m-1.69,0c0,2.5,1.34,4.19,3.48,4.19S113,23.76,113,21.26s-1.34-4.2-3.48-4.2-3.48,1.7-3.48,4.2m13.57-4.2h0V21.7c0,1.34-.63,2.14-1.7,2.14s-1.7-.8-1.7-2.14V17.15h-1.6V21.7c0,2.32,1.34,3.66,3.3,3.66s3.3-1.34,3.3-3.75V17.06Zm-89.26.18-.18,6.16.18,2.94a.39.39,0,0,0,.36.36.38.38,0,0,0,.35-.36l.18-2.94L31,17.15a.38.38,0,0,0-.35-.36c-.27.09-.36.18-.36.45M26.73,17l-.18,6.43.18,3a.27.27,0,0,0,.54,0l.17-3L27.27,17A.24.24,0,0,0,27,16.7a.29.29,0,0,0-.27.27m2.32,0-.18,6.43.18,3a.36.36,0,0,0,.72,0l.17-3L29.77,17a.36.36,0,0,0-.72,0m-1.16-.18-.18,6.61.18,3a.27.27,0,0,0,.54,0l.17-3-.17-6.61a.27.27,0,0,0-.54,0m3.57-.8-.18,7.41.18,2.94a.39.39,0,0,0,.36.36.38.38,0,0,0,.35-.36l.18-2.94L32.17,16a.38.38,0,0,0-.35-.36.39.39,0,0,0-.36.36m1.25-.62-.18,8,.18,2.94a.39.39,0,0,0,.36.36.38.38,0,0,0,.35-.36l.18-2.94-.18-8a.38.38,0,0,0-.35-.36H33c-.18,0-.27.18-.27.36m1.43-.81c-.27.09-.36.18-.36.45V26.34a.6.6,0,0,0,.36.45h9.91a3.57,3.57,0,0,0,0-7.14,3.21,3.21,0,0,0-1.34.27,6.24,6.24,0,0,0-6.25-5.72H36a6.87,6.87,0,0,0-1.87.36"/>
</svg>
